<?xml version="1.0" encoding="utf-8"?>
<!-- Generator: Adobe Illustrator 16.0.0, SVG Export Plug-In . SVG Version: 6.00 Build 0)  -->
<!DOCTYPE svg PUBLIC "-//W3C//DTD SVG 1.1//EN" "http://www.w3.org/Graphics/SVG/1.1/DTD/svg11.dtd">
<svg version="1.1" id="Capa_1" xmlns="http://www.w3.org/2000/svg" xmlns:xlink="http://www.w3.org/1999/xlink" x="0px" y="0px"
	 width="752.577px" height="159.793px" viewBox="0 0 752.577 159.793" enable-background="new 0 0 752.577 159.793"
	 xml:space="preserve">
<g>
	<path fill="#22ABFF" d="M15.341,12.862v11.342h13.78v4.664h-13.78v11.607h15.37v4.929H9.299V7.986H30.71v4.876H15.341z"/>
	<path fill="#22ABFF" d="M54.295,23.674v5.088H32.459v-5.088H54.295z"/>
	<path fill="#22ABFF" d="M91.554,11.113c3.039,2.332,5.088,5.495,6.148,9.487H91.29c-0.884-2.261-2.288-4.054-4.214-5.379
		c-1.926-1.325-4.285-1.987-7.075-1.987c-2.226,0-4.213,0.548-5.962,1.643c-1.749,1.095-3.127,2.659-4.134,4.69
		c-1.007,2.032-1.51,4.408-1.51,7.128c0,2.686,0.503,5.044,1.51,7.076c1.007,2.032,2.385,3.596,4.134,4.69
		c1.749,1.096,3.736,1.643,5.962,1.643c2.791,0,5.149-0.663,7.075-1.988c1.926-1.325,3.33-3.101,4.214-5.326h6.413
		c-1.06,3.993-3.11,7.146-6.148,9.46c-3.039,2.314-6.855,3.471-11.448,3.471c-3.534,0-6.661-0.803-9.381-2.411
		c-2.721-1.607-4.823-3.851-6.307-6.731c-1.484-2.879-2.226-6.174-2.226-9.884s0.742-7.004,2.226-9.884
		c1.484-2.879,3.586-5.132,6.307-6.758c2.72-1.625,5.847-2.438,9.381-2.438C84.699,7.615,88.515,8.781,91.554,11.113z"/>
	<path fill="#22ABFF" d="M130.482,9.947c2.809,1.625,5.017,3.896,6.625,6.811c1.607,2.915,2.412,6.21,2.412,9.884
		c0,3.675-0.804,6.97-2.412,9.885c-1.608,2.915-3.816,5.194-6.625,6.837s-5.945,2.464-9.408,2.464c-3.498,0-6.651-0.821-9.46-2.464
		s-5.026-3.922-6.651-6.837c-1.625-2.915-2.438-6.209-2.438-9.885c0-3.674,0.812-6.969,2.438-9.884
		c1.625-2.915,3.842-5.185,6.651-6.811c2.809-1.625,5.963-2.438,9.46-2.438C124.537,7.509,127.673,8.323,130.482,9.947z
		 M114.662,14.771c-1.874,1.095-3.331,2.668-4.373,4.717c-1.043,2.05-1.563,4.435-1.563,7.155c0,2.721,0.521,5.106,1.563,7.155
		c1.042,2.049,2.499,3.622,4.373,4.717c1.872,1.096,4.01,1.643,6.413,1.643c2.367,0,4.479-0.547,6.333-1.643
		c1.855-1.095,3.304-2.667,4.346-4.717c1.042-2.049,1.563-4.434,1.563-7.155c0-2.72-0.521-5.105-1.563-7.155
		c-1.042-2.049-2.491-3.622-4.346-4.717s-3.966-1.643-6.333-1.643C118.672,13.127,116.534,13.675,114.662,14.771z"/>
	<path fill="#22ABFF" d="M184.41,8.569v36.835h-6.095V17.792l-10.653,27.613h-5.3l-10.706-27.613v27.613h-6.042V8.569h7.314
		l12.19,29.415l11.978-29.415H184.41z"/>
	<path fill="#22ABFF" d="M230.466,8.569v36.835h-6.095V17.792l-10.653,27.613h-5.3l-10.706-27.613v27.613h-6.042V8.569h7.314
		l12.19,29.415l11.978-29.415H230.466z"/>
	<path fill="#22ABFF" d="M243.768,12.862v11.342h13.78v4.664h-13.78v11.607h15.37v4.929h-21.412V7.986h21.412v4.876H243.768z"/>
	<path fill="#22ABFF" d="M284.684,45.404l-9.328-14.946h-4.293v14.946h-6.042V7.986h13.197c4.275,0,7.517,1.042,9.726,3.127
		c2.208,2.085,3.312,4.841,3.312,8.268c0,2.933-0.822,5.335-2.464,7.208c-1.643,1.873-4.02,3.074-7.129,3.604l9.805,15.211H284.684z
		 M271.063,26.166h6.678c4.876,0,7.314-2.155,7.314-6.466c0-2.049-0.592-3.648-1.775-4.796c-1.184-1.148-3.03-1.723-5.539-1.723
		h-6.678V26.166z"/>
	<path fill="#22ABFF" d="M324.857,11.113c3.039,2.332,5.088,5.495,6.148,9.487h-6.413c-0.884-2.261-2.288-4.054-4.214-5.379
		c-1.926-1.325-4.285-1.987-7.075-1.987c-2.226,0-4.213,0.548-5.962,1.643c-1.749,1.095-3.127,2.659-4.134,4.69
		c-1.007,2.032-1.51,4.408-1.51,7.128c0,2.686,0.503,5.044,1.51,7.076c1.007,2.032,2.385,3.596,4.134,4.69
		c1.749,1.096,3.736,1.643,5.962,1.643c2.791,0,5.149-0.663,7.075-1.988c1.926-1.325,3.33-3.101,4.214-5.326h6.413
		c-1.06,3.993-3.11,7.146-6.148,9.46c-3.039,2.314-6.855,3.471-11.448,3.471c-3.534,0-6.661-0.803-9.381-2.411
		c-2.721-1.607-4.823-3.851-6.307-6.731c-1.484-2.879-2.226-6.174-2.226-9.884s0.742-7.004,2.226-9.884
		c1.484-2.879,3.586-5.132,6.307-6.758c2.72-1.625,5.847-2.438,9.381-2.438C318.002,7.615,321.818,8.781,324.857,11.113z"/>
	<path fill="#22ABFF" d="M343.089,12.862v11.342h13.78v4.664h-13.78v11.607h15.37v4.929h-21.412V7.986h21.412v4.876H343.089z"/>
	<path fill="#FFFFFF" d="M374.961,37.846c0-1.706,0.417-3.193,1.25-4.463s2.337-2.529,4.512-3.779
		c-1.237-1.445-2.08-2.666-2.529-3.662s-0.674-2.028-0.674-3.096c0-1.979,0.706-3.542,2.119-4.688
		c1.413-1.146,3.311-1.719,5.693-1.719c2.305,0,4.114,0.557,5.43,1.67s1.973,2.614,1.973,4.502c0,1.484-0.439,2.832-1.318,4.043
		s-2.347,2.422-4.404,3.633l6.758,6.523c1.055-1.393,1.934-3.438,2.637-6.133h4.727c-0.911,3.698-2.37,6.712-4.375,9.043
		l5.879,5.684h-5.918l-2.91-2.832c-1.328,1.068-2.744,1.872-4.248,2.412s-3.167,0.811-4.99,0.811c-2.995,0-5.345-0.709-7.051-2.129
		C375.813,42.247,374.961,40.307,374.961,37.846z M384.805,41.85c2.383,0,4.421-0.696,6.113-2.09l-7.48-7.363
		c-1.38,0.886-2.331,1.716-2.852,2.49c-0.521,0.775-0.781,1.657-0.781,2.646c0,1.276,0.452,2.314,1.357,3.115
		S383.281,41.85,384.805,41.85z M381.895,23.002c0,0.82,0.218,1.595,0.654,2.324c0.437,0.729,1.045,1.504,1.826,2.324
		c1.472-0.833,2.503-1.611,3.096-2.334s0.889-1.533,0.889-2.432c0-0.846-0.283-1.523-0.85-2.031s-1.318-0.762-2.256-0.762
		c-1.028,0-1.846,0.264-2.451,0.791S381.895,22.117,381.895,23.002z"/>
	<path fill="#E79300" d="M466.136,7.986l-9.328,37.418h-7.42l-7.897-28.938l-7.896,28.938h-7.42l-9.328-37.418h6.625l6.466,30.422
		l8.215-30.422h6.679l8.215,30.422l6.466-30.422H466.136z"/>
	<path fill="#E79300" d="M477.583,12.862v11.342h13.779v4.664h-13.779v11.607h15.37v4.929h-21.412V7.986h21.412v4.876H477.583z"/>
	<path fill="#E79300" d="M523.825,29.345c1.396,1.696,2.094,3.675,2.094,5.936c0,3.11-1.043,5.574-3.127,7.394
		c-2.086,1.82-5.106,2.729-9.063,2.729h-14.893V7.986h14.628c3.744,0,6.616,0.84,8.612,2.518c1.996,1.679,2.994,3.984,2.994,6.917
		c0,2.368-0.618,4.285-1.854,5.75c-1.237,1.466-2.862,2.447-4.876,2.941C520.601,26.572,522.429,27.649,523.825,29.345z
		 M504.878,24.098h7.473c2.12,0,3.736-0.494,4.85-1.484c1.113-0.989,1.67-2.367,1.67-4.134c0-1.731-0.557-3.092-1.67-4.081
		c-1.113-0.989-2.801-1.484-5.062-1.484h-7.261V24.098z M517.836,38.859c1.254-1.042,1.882-2.5,1.882-4.373
		c0-1.873-0.636-3.339-1.908-4.399c-1.271-1.06-3.057-1.59-5.353-1.59h-7.579v11.925h7.632
		C514.806,40.422,516.582,39.901,517.836,38.859z"/>
	<path fill="#E79300" d="M573.804,36.527c-1.537,2.809-3.781,4.991-6.731,6.545c-2.95,1.555-6.475,2.332-10.573,2.332h-12.508V7.986
		h12.508c4.099,0,7.623,0.769,10.573,2.306c2.95,1.537,5.194,3.702,6.731,6.492c1.537,2.792,2.306,6.078,2.306,9.858
		C576.109,30.423,575.341,33.718,573.804,36.527z M566.357,36.447c2.402-2.332,3.604-5.6,3.604-9.805
		c0-4.204-1.201-7.473-3.604-9.805c-2.403-2.332-5.849-3.498-10.335-3.498h-5.989v26.606h5.989
		C560.509,39.945,563.954,38.779,566.357,36.447z"/>
	<path fill="#E79300" d="M588.246,12.862v11.342h13.779v4.664h-13.779v11.607h15.37v4.929h-21.412V7.986h21.412v4.876H588.246z"/>
	<path fill="#E79300" d="M632.766,40.555c-0.884,1.573-2.226,2.835-4.027,3.79c-1.803,0.954-4.011,1.431-6.625,1.431
		c-2.545,0-4.823-0.451-6.838-1.352c-2.014-0.901-3.622-2.164-4.822-3.79c-1.202-1.625-1.891-3.498-2.067-5.618h6.466
		c0.177,1.626,0.875,3.021,2.094,4.187s2.853,1.749,4.902,1.749c1.837,0,3.26-0.494,4.267-1.484
		c1.007-0.989,1.511-2.261,1.511-3.816c0-1.342-0.371-2.446-1.113-3.312c-0.742-0.865-1.661-1.545-2.756-2.041
		c-1.096-0.495-2.597-1.06-4.505-1.696c-2.332-0.742-4.231-1.484-5.697-2.226c-1.467-0.742-2.713-1.819-3.737-3.233
		c-1.024-1.413-1.536-3.268-1.536-5.565c0-2.014,0.494-3.78,1.483-5.3c0.989-1.519,2.402-2.694,4.24-3.524
		c1.837-0.83,3.957-1.246,6.36-1.246c3.815,0,6.845,0.919,9.089,2.756c2.243,1.838,3.524,4.24,3.843,7.208h-6.52
		c-0.247-1.413-0.91-2.624-1.987-3.63c-1.078-1.007-2.553-1.51-4.425-1.51c-1.696,0-3.057,0.433-4.081,1.298
		c-1.025,0.866-1.537,2.112-1.537,3.736c0,1.272,0.353,2.324,1.06,3.154c0.706,0.831,1.599,1.484,2.677,1.961
		c1.077,0.477,2.552,1.033,4.426,1.669c2.366,0.742,4.301,1.493,5.803,2.252c1.502,0.76,2.773,1.864,3.816,3.312
		c1.042,1.449,1.563,3.357,1.563,5.724C634.091,37.278,633.648,38.983,632.766,40.555z"/>
	<path fill="#E79300" d="M646.175,7.986v37.418h-6.042V7.986H646.175z"/>
	<path fill="#E79300" d="M681.737,10.954c2.968,2.191,4.929,5.177,5.883,8.957h-6.36c-0.812-2.014-2.146-3.621-4.001-4.823
		c-1.855-1.201-4.055-1.802-6.599-1.802c-2.332,0-4.426,0.548-6.28,1.643c-1.855,1.096-3.305,2.65-4.347,4.664
		s-1.563,4.382-1.563,7.102c0,2.862,0.53,5.318,1.59,7.367c1.061,2.049,2.553,3.613,4.479,4.69c1.926,1.078,4.161,1.616,6.705,1.616
		c3.108,0,5.777-0.962,8.003-2.888c2.226-1.926,3.568-4.566,4.028-7.924h-13.728v-4.452h18.815v5.777
		c-0.424,2.756-1.404,5.256-2.941,7.5c-1.537,2.244-3.569,4.037-6.096,5.379c-2.526,1.343-5.415,2.014-8.665,2.014
		c-3.64,0-6.855-0.812-9.646-2.438c-2.791-1.625-4.947-3.877-6.466-6.758c-1.52-2.879-2.278-6.174-2.278-9.884
		s0.759-7.004,2.278-9.884c1.519-2.879,3.665-5.123,6.439-6.731c2.773-1.607,5.98-2.411,9.62-2.411
		C675.059,7.668,678.77,8.764,681.737,10.954z"/>
	<path fill="#E79300" d="M724.72,45.404h-6.042l-18.179-27.613v27.613h-6.042V8.039h6.042l18.179,27.719V8.039h6.042V45.404z"/>
	<path fill="#FFFFFF" d="M62.306,67.9c5.194,2.436,9.428,5.886,12.698,10.355c3.27,4.469,5.486,9.646,6.649,15.533H59.09
		c-1.236-3.052-3.161-5.431-5.777-7.14c-2.616-1.707-5.632-2.562-9.047-2.562c-4.725,0-8.54,1.763-11.445,5.287
		c-2.907,3.525-4.36,8.229-4.36,14.116c0,5.886,1.453,10.61,4.36,14.17C35.727,121.22,39.542,123,44.266,123
		c3.415,0,6.431-0.872,9.047-2.616c2.616-1.744,4.541-4.142,5.777-7.194h22.563c-1.744,9.011-5.869,16.187-12.372,21.528
		c-6.504,5.341-14.733,8.011-24.688,8.011c-7.63,0-14.297-1.652-20.001-4.959c-5.705-3.306-10.101-7.938-13.189-13.897
		c-3.089-5.958-4.632-12.753-4.632-20.383c0-7.63,1.543-14.424,4.632-20.383c3.088-5.958,7.484-10.59,13.189-13.897
		c5.704-3.306,12.372-4.959,20.001-4.959C51.205,64.249,57.109,65.467,62.306,67.9z"/>
	<path fill="#FFFFFF" d="M148.305,68.881c5.995,3.379,10.718,8.085,14.17,14.116c3.45,6.033,5.177,12.826,5.177,20.383
		c0,7.559-1.744,14.353-5.232,20.383c-3.488,6.032-8.229,10.736-14.225,14.115c-5.995,3.379-12.589,5.069-19.783,5.069
		c-7.194,0-13.808-1.689-19.838-5.069c-6.032-3.379-10.791-8.083-14.279-14.115c-3.488-6.031-5.232-12.825-5.232-20.383
		c0-7.557,1.744-14.35,5.232-20.383c3.488-6.031,8.247-10.736,14.279-14.116c6.031-3.379,12.644-5.068,19.838-5.068
		C135.678,63.813,142.311,65.502,148.305,68.881z M115.551,88.938c-3.125,3.525-4.687,8.338-4.687,14.442
		c0,5.959,1.562,10.72,4.687,14.279c3.124,3.561,7.412,5.341,12.862,5.341c5.376,0,9.627-1.78,12.753-5.341
		c3.124-3.56,4.687-8.32,4.687-14.279c0-6.104-1.545-10.917-4.633-14.442c-3.089-3.524-7.357-5.287-12.807-5.287
		C122.963,83.651,118.674,85.414,115.551,88.938z"/>
	<path fill="#FFFFFF" d="M248.529,142.184h-21.473l-28.34-43.055v43.055h-21.473V65.121h21.473l28.34,43.6v-43.6h21.473V142.184z"/>
	<path fill="#FFFFFF" d="M312.838,65.012v17.113h-30.956v13.734h23.108v16.132h-23.108v30.193h-21.473V65.012H312.838z"/>
	<path fill="#FFFFFF" d="M343.14,82.125v12.753h24.962v16.241H343.14v13.952h28.231v17.113h-49.704V65.012h49.704v17.113H343.14z"/>
	<path fill="#FFFFFF" d="M420.42,142.184l-15.587-28.449h-2.18v28.449H381.18V65.012h33.899c6.176,0,11.426,1.073,15.75,3.215
		c4.323,2.144,7.576,5.106,9.756,8.883c2.18,3.779,3.27,8.03,3.27,12.753c0,5.378-1.49,10.046-4.469,14.006
		c-2.98,3.961-7.267,6.741-12.861,8.338l17.549,29.975H420.42z M402.653,99.347h10.572c5.958,0,8.938-2.688,8.938-8.066
		c0-2.543-0.746-4.541-2.234-5.995c-1.49-1.453-3.725-2.18-6.704-2.18h-10.572V99.347z"/>
	<path fill="#FFFFFF" d="M473.83,82.125v12.753h24.961v16.241H473.83v13.952h28.23v17.113h-49.704V65.012h49.704v17.113H473.83z"/>
	<path fill="#FFFFFF" d="M583.155,142.184h-21.473l-28.34-43.055v43.055h-21.474V65.121h21.474l28.34,43.6v-43.6h21.473V142.184z"/>
	<path fill="#FFFFFF" d="M648.39,67.9c5.194,2.436,9.429,5.886,12.699,10.355c3.27,4.469,5.485,9.646,6.648,15.533h-22.562
		c-1.237-3.052-3.161-5.431-5.777-7.14c-2.616-1.707-5.632-2.562-9.047-2.562c-4.725,0-8.54,1.763-11.445,5.287
		c-2.907,3.525-4.359,8.229-4.359,14.116c0,5.886,1.452,10.61,4.359,14.17c2.905,3.561,6.721,5.341,11.445,5.341
		c3.415,0,6.431-0.872,9.047-2.616c2.616-1.744,4.54-4.142,5.777-7.194h22.562c-1.744,9.011-5.869,16.187-12.371,21.528
		c-6.505,5.341-14.734,8.011-24.688,8.011c-7.63,0-14.298-1.652-20.002-4.959c-5.705-3.306-10.102-7.938-13.188-13.897
		c-3.09-5.958-4.633-12.753-4.633-20.383c0-7.63,1.543-14.424,4.633-20.383c3.087-5.958,7.483-10.59,13.188-13.897
		c5.704-3.306,12.372-4.959,20.002-4.959C637.289,64.249,643.193,65.467,648.39,67.9z"/>
	<path fill="#FFFFFF" d="M698.802,82.125v12.753h24.961v16.241h-24.961v13.952h28.23v17.113h-49.704V65.012h49.704v17.113H698.802z"
		/>
</g>
</svg>
